<svg width="396" height="192.43937512263744" viewBox="0 0 350 170.08530629526035" class="css-1j8o68f"><defs id="SvgjsDefs1601"></defs><g id="SvgjsG1602" featurekey="symbolFeature-0" transform="matrix(2.6923076923076925,0,0,2.6923076923076925,94.23076923076923,-43.01769146552453)" fill="#ffffff"><path xmlns="http://www.w3.org/2000/svg" d="M29.317,40.737l-0.214-0.098l-12.7-5.782v5.311c0,2.355,5.782,5.855,12.914,5.855c7.132,0,12.914-3.501,12.914-5.855v-5.311  L29.317,40.737z"></path><polygon xmlns="http://www.w3.org/2000/svg" points="29.317,15.978 4,27.504 29.317,39.029 54.632,27.504 "></polygon><path xmlns="http://www.w3.org/2000/svg" d="M54.176,36.799l-0.002-0.126c0.534-0.339,0.944-0.996,0.944-1.679c0-0.956-0.623-1.789-1.57-1.939v-5.551h-0.503v5.582  c-0.885,0.214-1.62,0.954-1.62,1.846c0,0.683,0.259,1.278,0.793,1.617l-0.054,0.249l-1.873,7.79h2.855H56L54.176,36.799z"></path></g><g id="SvgjsG1603" featurekey="nameFeature-0" transform="matrix(2.412196178971714,0,0,2.412196178971714,-3.859513943865981,72.82555479481515)" fill="#ffffff"><path d="M1.6 40 l0 -28 l6.96 0 c4.4 0 6.56 2.44 6.56 6.92 l0 14.16 c0 4.48 -2.16 6.92 -6.56 6.92 l-6.96 0 z M8.48 16 l-2.48 0 l0 20 l2.48 0 c1.4 0 2.24 -0.72 2.24 -2.72 l0 -14.56 c0 -2 -0.84 -2.72 -2.24 -2.72 z M26.648 16 l0 7.8 l6.04 0 l0 4 l-6.04 0 l0 8.2 l7.6 0 l0 4 l-12 0 l0 -28 l12 0 l0 4 l-7.6 0 z M44.576 12 l3.32 22.84 l0.08 0 l3.32 -22.84 l4.04 0 l-4.32 28 l-6.56 0 l-4.32 -28 l4.44 0 z M78.83200000000001 28.4 l0 -4 l6.16 0 l0 8.88 c0 4.48 -2.24 7.04 -6.56 7.04 s-6.56 -2.56 -6.56 -7.04 l0 -14.56 c0 -4.48 2.24 -7.04 6.56 -7.04 s6.56 2.56 6.56 7.04 l0 2.72 l-4.16 0 l0 -3 c0 -2 -0.88 -2.76 -2.28 -2.76 s-2.28 0.76 -2.28 2.76 l0 15.12 c0 2 0.88 2.72 2.28 2.72 s2.28 -0.72 2.28 -2.72 l0 -5.16 l-2 0 z M105.84 40 l-4.48 0 c-0.24 -0.72 -0.4 -1.16 -0.4 -3.44 l0 -4.4 c0 -2.6 -0.88 -3.56 -2.88 -3.56 l-1.52 0 l0 11.4 l-4.4 0 l0 -28 l6.64 0 c4.56 0 6.52 2.12 6.52 6.44 l0 2.2 c0 2.88 -0.92 4.72 -2.88 5.64 l0 0.08 c2.2 0.92 2.92 3 2.92 5.92 l0 4.32 c0 1.36 0.04 2.36 0.48 3.4 z M98.68 16 l-2.12 0 l0 8.6 l1.72 0 c1.64 0 2.64 -0.72 2.64 -2.96 l0 -2.76 c0 -2 -0.68 -2.88 -2.24 -2.88 z M122.328 12 l4.48 28 l-4.44 0 l-0.76 -5.08 l-5.4 0 l-0.76 5.08 l-4.04 0 l4.48 -28 l6.44 0 z M118.848 16.96 l-2.08 14.16 l4.24 0 l-2.08 -14.16 l-0.08 0 z M133.176 40 l0 -28 l6.96 0 c4.4 0 6.56 2.44 6.56 6.92 l0 14.16 c0 4.48 -2.16 6.92 -6.56 6.92 l-6.96 0 z M140.05599999999998 16 l-2.48 0 l0 20 l2.48 0 c1.4 0 2.24 -0.72 2.24 -2.72 l0 -14.56 c0 -2 -0.84 -2.72 -2.24 -2.72 z"></path></g></svg>