<svg width="396" height="193" viewBox="0 0 396 193" fill="none" xmlns="http://www.w3.org/2000/svg">
<g clip-path="url(#clip0_348_736)">
<path d="M195.92 75.4197L195.268 75.1212L156.582 57.5083V73.6864C156.582 80.8601 174.195 91.5217 195.92 91.5217C217.645 91.5217 235.258 80.8571 235.258 73.6864V57.5083L195.92 75.4197Z" fill="black"/>
<path d="M195.92 0L118.801 35.11L195.92 70.2169L273.034 35.11L195.92 0Z" fill="black"/>
<path d="M271.645 63.4239L271.639 63.04C273.265 62.0074 274.514 60.0061 274.514 57.9256C274.514 55.0134 272.617 52.476 269.732 52.0191V35.1099H268.2V52.1135C265.504 52.7654 263.265 55.0195 263.265 57.7367C263.265 59.8172 264.054 61.6297 265.68 62.6623L265.516 63.4208L259.811 87.1504H268.507H277.201L271.645 63.4239Z" fill="black"/>
<path d="M0 191.566V115.148H18.9954C31.004 115.148 36.8992 121.807 36.8992 134.034V172.68C36.8992 184.907 31.004 191.566 18.9954 191.566H0ZM18.7771 126.065H12.0086V180.649H18.7771C22.598 180.649 24.8906 178.684 24.8906 173.226V133.488C24.8906 128.03 22.598 126.065 18.7771 126.065ZM68.3617 126.065V147.353H84.8462V158.27H68.3617V180.649H89.1038V191.566H56.3531V115.148H89.1038V126.065H68.3617ZM117.291 115.148L126.352 177.483H126.571L135.632 115.148H146.658L134.868 191.566H116.964L105.174 115.148H117.291ZM210.784 159.907V148.99H227.596V173.226C227.596 185.453 221.482 192.439 209.692 192.439C197.902 192.439 191.788 185.453 191.788 173.226V133.488C191.788 121.261 197.902 114.274 209.692 114.274C221.482 114.274 227.596 121.261 227.596 133.488V140.912H216.242V132.724C216.242 127.266 213.84 125.191 210.02 125.191C206.199 125.191 203.797 127.266 203.797 132.724V173.99C203.797 179.448 206.199 181.413 210.02 181.413C213.84 181.413 216.242 179.448 216.242 173.99V159.907H210.784ZM284.495 191.566H272.268C271.613 189.601 271.176 188.4 271.176 182.178V170.169C271.176 163.073 268.774 160.453 263.316 160.453H259.167V191.566H247.159V115.148H265.281C277.726 115.148 283.076 120.934 283.076 132.724V138.728C283.076 146.588 280.565 151.61 275.215 154.121V154.339C281.22 156.85 283.185 162.527 283.185 170.496V182.287C283.185 185.999 283.294 188.728 284.495 191.566ZM264.953 126.065H259.167V149.536H263.862C268.338 149.536 271.067 147.571 271.067 141.458V133.925C271.067 128.466 269.211 126.065 264.953 126.065ZM329.494 115.148L341.721 191.566H329.603L327.529 177.702H312.791L310.717 191.566H299.691L311.918 115.148H329.494ZM319.996 128.685L314.32 167.331H325.892L320.215 128.685H319.996ZM359.101 191.566V115.148H378.096C390.105 115.148 396 121.807 396 134.034V172.68C396 184.907 390.105 191.566 378.096 191.566H359.101ZM377.878 126.065H371.109V180.649H377.878C381.699 180.649 383.991 178.684 383.991 173.226V133.488C383.991 128.03 381.699 126.065 377.878 126.065Z" fill="black"/>
</g>
<defs>
<clipPath id="clip0_348_736">
<rect width="396" height="192.439" fill="white"/>
</clipPath>
</defs>
</svg>
